<svg version="1.1" id="Capa_1" xmlns="http://www.w3.org/2000/svg" xmlns:xlink="http://www.w3.org/1999/xlink" x="0px" y="0px"
	 viewBox="0 0 436.9 436.9" style="enable-background:new 0 0 436.9 436.9;" xml:space="preserve">
<g>
	<circle fill="#E6B54A" cx="218.5" cy="218.5" r="218.5"/>
	<g>
		<path fill="#D05664" d="M293.7,110.9v17.2h-30.1v-17.2H160.4v17.2h-30.1v-17.2H95.9v47.3h232.2v-47.3H293.7z M293.7,110.9"/>
		<path fill="#ECE9DD" d="M130.3,158.2H95.9v184.9h232.2V158.2H130.3z M130.3,158.2"/>
		<path fill="#D1CEB9" d="M255,188.4H130.3v124.7h163.5V188.4H255z M216.3,196.9h30.1v30.1h-30.1V196.9z M246.4,265.8h-30.1v-30.1
			h30.1V265.8z M177.6,235.7h30.1v30.1h-30.1V235.7z M177.6,196.9h30.1v30.1h-30.1V196.9z M138.9,196.9H169v30.1h-30.1V196.9z
			 M138.9,235.7H169v30.1h-30.1V235.7z M169,304.5h-30.1v-30.1H169V304.5z M207.7,304.5h-30.1v-30.1h30.1V304.5z M246.4,304.5h-30.1
			v-30.1h30.1V304.5z M285.1,304.5H255v-30.1h30.1V304.5z M285.1,265.8H255v-30.1h30.1V265.8z M255,227.1v-30.1h30.1v30.1H255z
			 M255,227.1"/>
		<rect x="130.3" y="93.7" fill="#3E4A5D" width="30.1" height="34.4"/>
		<rect x="263.6" y="93.7" fill="#3E4A5D" width="30.1" height="34.4"/>
		<rect x="177.6" y="235.7" fill="#7A6E5E" width="30.1" height="30.1"/>
		<path fill="#92C7AF" d="M341,295.9c0,26.1-21.2,47.3-47.3,47.3c-26.1,0-47.3-21.2-47.3-47.3c0-26.1,21.2-47.3,47.3-47.3
			C319.8,248.6,341,269.7,341,295.9L341,295.9z M341,295.9"/>
		<path fill="#FFFFFF" d="M319.5,291.6H298v-21.5c0-2.4-1.9-4.3-4.3-4.3c-2.4,0-4.3,1.9-4.3,4.3v25.8c0,2.4,1.9,4.3,4.3,4.3h25.8
			c2.4,0,4.3-1.9,4.3-4.3C323.8,293.5,321.9,291.6,319.5,291.6L319.5,291.6z M319.5,291.6"/>
	</g>
</g>
</svg>
