<?xml version="1.0" encoding="utf-8"?>
<!-- Generator: Adobe Illustrator 21.0.1, SVG Export Plug-In . SVG Version: 6.00 Build 0)  -->
<svg version="1.1" id="Capa_1" xmlns="http://www.w3.org/2000/svg" xmlns:xlink="http://www.w3.org/1999/xlink" x="0px" y="0px"
	 viewBox="0 0 436.9 436.9" style="enable-background:new 0 0 436.9 436.9;" xml:space="preserve">
<style type="text/css">
	.st0{fill:#407376;}
	.st1{fill:none;stroke:#FFFFFF;stroke-width:2;stroke-miterlimit:10;}
	.st2{opacity:0.8;fill:#417376;}
	.st3{fill:#FFFFFF;}
	.st4{fill-rule:evenodd;clip-rule:evenodd;fill:#FFFFFF;}
	.st5{fill:none;stroke:#407376;stroke-width:2;stroke-miterlimit:10;}
	.st6{fill:#E6B54A;}
	.st7{fill:#455669;}
	.st8{fill:#EBEFF1;}
	.st9{fill:#D3D4D9;}
	.st10{fill:#E1E4E7;}
	.st11{fill:#6A7887;}
	.st12{fill:#3A4959;}
	.st13{fill:#60A0D7;}
	.st14{fill:#77A7E3;}
	.st15{fill:#4D80C9;}
	.st16{fill:#D01636;}
	.st17{fill:#D05664;}
	.st18{fill:#ECE9DD;}
	.st19{fill:#D1CEB9;}
	.st20{fill:#3E4A5D;}
	.st21{fill:#7A6E5E;}
	.st22{fill:#92C7AF;}
	.st23{fill:none;stroke:#838384;stroke-miterlimit:10;}
	.st24{fill:#3B69A0;}
	.st25{fill-rule:evenodd;clip-rule:evenodd;fill:#3B69A0;}
</style>
<g>
	<circle class="st6" cx="218.5" cy="218.5" r="218.5"/>
	<g>
		<path class="st17" d="M293.7,110.9v17.2h-30.1v-17.2H160.4v17.2h-30.1v-17.2H95.9v47.3h232.2v-47.3H293.7z M293.7,110.9"/>
		<path class="st18" d="M130.3,158.2H95.9v184.9h232.2V158.2H130.3z M130.3,158.2"/>
		<path class="st19" d="M255,188.4H130.3v124.7h163.5V188.4H255z M216.3,196.9h30.1v30.1h-30.1V196.9z M246.4,265.8h-30.1v-30.1
			h30.1V265.8z M177.6,235.7h30.1v30.1h-30.1V235.7z M177.6,196.9h30.1v30.1h-30.1V196.9z M138.9,196.9H169v30.1h-30.1V196.9z
			 M138.9,235.7H169v30.1h-30.1V235.7z M169,304.5h-30.1v-30.1H169V304.5z M207.7,304.5h-30.1v-30.1h30.1V304.5z M246.4,304.5h-30.1
			v-30.1h30.1V304.5z M285.1,304.5H255v-30.1h30.1V304.5z M285.1,265.8H255v-30.1h30.1V265.8z M255,227.1v-30.1h30.1v30.1H255z
			 M255,227.1"/>
		<rect x="130.3" y="93.7" class="st20" width="30.1" height="34.4"/>
		<rect x="263.6" y="93.7" class="st20" width="30.1" height="34.4"/>
		<rect x="177.6" y="235.7" class="st21" width="30.1" height="30.1"/>
		<path class="st22" d="M341,295.9c0,26.1-21.2,47.3-47.3,47.3c-26.1,0-47.3-21.2-47.3-47.3c0-26.1,21.2-47.3,47.3-47.3
			C319.8,248.6,341,269.7,341,295.9L341,295.9z M341,295.9"/>
		<path class="st3" d="M319.5,291.6H298v-21.5c0-2.4-1.9-4.3-4.3-4.3c-2.4,0-4.3,1.9-4.3,4.3v25.8c0,2.4,1.9,4.3,4.3,4.3h25.8
			c2.4,0,4.3-1.9,4.3-4.3C323.8,293.5,321.9,291.6,319.5,291.6L319.5,291.6z M319.5,291.6"/>
	</g>
</g>
</svg>
