<svg version="1.1" id="Capa_1" xmlns="http://www.w3.org/2000/svg" xmlns:xlink="http://www.w3.org/1999/xlink" x="0px" y="0px" viewBox="0 0 436.9 436.9" style="enable-background:new 0 0 436.9 436.9;" xml:space="preserve">
<g>
	<circle fill="#E6B54A" cx="218.5" cy="218.5" r="218.5"/>
	<g>
		<g>
			<path fill="#455669" d="M87.1,140.4c-2,0-3.6,1.6-3.6,3.6v180.6c0,2,1.6,3.6,3.6,3.6h124.4V140.4H87.1z"/>
			<path fill="#455669" d="M342.8,140.4H218.3v187.9h124.4c2,0,3.6-1.6,3.6-3.6V144.1C346.4,142.1,344.8,140.4,342.8,140.4z"/>
		</g>
		<path fill="#EBEFF1" d="M337.7,142.6c0,0-61.1-26.1-119.6,0v13.7v163.9h119.6V156.9V142.6z"/>
		<path fill="#D3D4D9" d="M218.2,320.2h119.6C337.7,320.2,275.5,294.5,218.2,320.2z"/>
		<g>
			<path fill="#E1E4E7" d="M333.6,163.8c0,0-59.7-27.9-106.8,0v17.1c0,0,41.7-30.8,106.8,0V163.8z"/>
			<path fill="#E1E4E7" d="M333.6,190.9c0,0-59.7-27.9-106.8,0V208c0,0,41.7-30.8,106.8,0V190.9z"/>
			<path fill="#E1E4E7" d="M333.6,218c0,0-59.7-27.9-106.8,0V235c0,0,41.7-30.8,106.8,0V218z"/>
			<path fill="#E1E4E7" d="M333.6,245.1c0,0-59.7-27.9-106.8,0v17.1c0,0,41.7-30.8,106.8,0V245.1z"/>
			<path fill="#E1E4E7" d="M333.6,272.1c0,0-59.7-27.9-106.8,0v17.1c0,0,41.7-30.8,106.8,0V272.1z"/>
		</g>
		<path fill="#EBEFF1" d="M211.6,142.6c0,0-61.1-26.1-119.6,0v13.7v163.9h119.6V156.9V142.6z"/>
		<path fill="#D3D4D9" d="M92.1,320.2h119.6C211.6,320.2,149.4,294.5,92.1,320.2z"/>
		<g>
			<path fill="#E1E4E7" d="M205.2,165.9c0,0-59.7-27.9-106.8,0v17.1c0,0,41.7-30.8,106.8,0V165.9z"/>
			<path fill="#E1E4E7" d="M205.2,192.9c0,0-59.7-27.9-106.8,0V210c0,0,41.7-30.8,106.8,0V192.9z"/>
			<path fill="#E1E4E7" d="M205.2,220c0,0-59.7-27.9-106.8,0v17.1c0,0,41.7-30.8,106.8,0V220z"/>
			<path fill="#E1E4E7" d="M205.2,247.1c0,0-59.7-27.9-106.8,0v17.1c0,0,41.7-30.8,106.8,0V247.1z"/>
			<path fill="#E1E4E7" d="M205.2,274.2c0,0-59.7-27.9-106.8,0v17.1c0,0,41.7-30.8,106.8,0V274.2z"/>
		</g>
		<g>
			<path fill="#6A7887" d="M223.5,159.8h-17.1c-2.2,0-4-1.8-4-4v0c0-2.2,1.8-4,4-4h17.1c2.2,0,4,1.8,4,4v0
				C227.4,158,225.6,159.8,223.5,159.8z"/>
			<path fill="#6A7887" d="M223.5,178h-17.1c-2.2,0-4-1.8-4-4l0,0c0-2.2,1.8-4,4-4h17.1c2.2,0,4,1.8,4,4l0,0
				C227.4,176.2,225.6,178,223.5,178z"/>
			<path fill="#6A7887" d="M223.5,196.2h-17.1c-2.2,0-4-1.8-4-4l0,0c0-2.2,1.8-4,4-4h17.1c2.2,0,4,1.8,4,4l0,0
				C227.4,194.4,225.6,196.2,223.5,196.2z"/>
			<path fill="#6A7887" d="M223.5,214.4h-17.1c-2.2,0-4-1.8-4-4l0,0c0-2.2,1.8-4,4-4h17.1c2.2,0,4,1.8,4,4l0,0
				C227.4,212.7,225.6,214.4,223.5,214.4z"/>
			<path fill="#6A7887" d="M223.5,232.6h-17.1c-2.2,0-4-1.8-4-4l0,0c0-2.2,1.8-4,4-4h17.1c2.2,0,4,1.8,4,4l0,0
				C227.4,230.9,225.6,232.6,223.5,232.6z"/>
			<path fill="#6A7887" d="M223.5,250.8h-17.1c-2.2,0-4-1.8-4-4l0,0c0-2.2,1.8-4,4-4h17.1c2.2,0,4,1.8,4,4l0,0
				C227.4,249.1,225.6,250.8,223.5,250.8z"/>
			<path fill="#6A7887" d="M223.5,269h-17.1c-2.2,0-4-1.8-4-4l0,0c0-2.2,1.8-4,4-4h17.1c2.2,0,4,1.8,4,4l0,0
				C227.4,267.3,225.6,269,223.5,269z"/>
			<path fill="#6A7887" d="M223.5,287.2h-17.1c-2.2,0-4-1.8-4-4l0,0c0-2.2,1.8-4,4-4h17.1c2.2,0,4,1.8,4,4l0,0
				C227.4,285.5,225.6,287.2,223.5,287.2z"/>
			<path fill="#6A7887" d="M223.5,305.5h-17.1c-2.2,0-4-1.8-4-4l0,0c0-2.2,1.8-4,4-4h17.1c2.2,0,4,1.8,4,4l0,0
				C227.4,303.7,225.6,305.5,223.5,305.5z"/>
		</g>
		<g>
			<path fill="#3A4959" d="M343.9,131.9c-0.7,0-1.3-0.3-1.8-0.8l-53.9-55.1c-0.2-0.2-0.4-0.2-0.5-0.2c-0.1,0-0.3,0.1-0.4,0.3
				l-5.5,11.4c-0.6,1.3-2.1,1.8-3.4,1.2c-1.3-0.6-1.8-2.1-1.2-3.4l5.5-11.4c0.8-1.7,2.4-2.8,4.2-3.1c1.8-0.3,3.7,0.3,4.9,1.6
				l53.9,55.1c1,1,1,2.6,0,3.6C345.1,131.7,344.5,131.9,343.9,131.9z"/>
			<path fill="#3A4959" d="M216.6,131.9c-0.6,0-1.1-0.2-1.6-0.5c-1.1-0.9-1.3-2.5-0.4-3.6l43.9-55.3c1.3-1.3,3.1-1.9,4.9-1.6
				c1.8,0.3,3.4,1.5,4.2,3.1l5.5,11.4c0.6,1.3,0.1,2.8-1.2,3.4c-1.3,0.6-2.8,0.1-3.4-1.2l-5.5-11.4c-0.1-0.2-0.3-0.3-0.4-0.3
				c-0.1,0-0.3,0-0.4,0.1L218.6,131C218.1,131.6,217.4,131.9,216.6,131.9z"/>
			<ellipse fill="#3A4959" cx="314.8" cy="129.7" rx="31.7" ry="23.1"/>
		</g>
		<ellipse fill="#60A0D7" cx="314.8" cy="129.7" rx="27" ry="19.7"/>
		<ellipse fill="#3A4959" cx="245.8" cy="129.7" rx="31.7" ry="23.1"/>
		<ellipse fill="#60A0D7" cx="245.8" cy="129.7" rx="27" ry="19.7"/>
		<rect x="274.7" y="123.5" fill="#3A4959" width="11.3" height="5.1"/>
	</g>
</g>
</svg>
