<?xml version="1.0" encoding="utf-8"?>
<!-- Generator: Adobe Illustrator 21.0.1, SVG Export Plug-In . SVG Version: 6.00 Build 0)  -->
<svg version="1.1" id="Capa_1" xmlns="http://www.w3.org/2000/svg" xmlns:xlink="http://www.w3.org/1999/xlink" x="0px" y="0px"
	 viewBox="0 0 230.8 67.4" style="enable-background:new 0 0 230.8 67.4;" xml:space="preserve">
<style type="text/css">
	.st0{fill:#407376;}
	.st1{fill:none;stroke:#FFFFFF;stroke-width:2;stroke-miterlimit:10;}
	.st2{opacity:0.8;fill:#417376;}
	.st3{fill:#FFFFFF;}
	.st4{fill-rule:evenodd;clip-rule:evenodd;fill:#FFFFFF;}
	.st5{fill:none;stroke:#407376;stroke-width:2;stroke-miterlimit:10;}
	.st6{fill:#E6B54A;}
	.st7{fill:#455669;}
	.st8{fill:#EBEFF1;}
	.st9{fill:#D3D4D9;}
	.st10{fill:#E1E4E7;}
	.st11{fill:#6A7887;}
	.st12{fill:#3A4959;}
	.st13{fill:#60A0D7;}
	.st14{fill:#77A7E3;}
	.st15{fill:#4D80C9;}
	.st16{fill:#D01636;}
	.st17{fill:#D05664;}
	.st18{fill:#ECE9DD;}
	.st19{fill:#D1CEB9;}
	.st20{fill:#3E4A5D;}
	.st21{fill:#7A6E5E;}
	.st22{fill:#92C7AF;}
	.st23{fill:none;stroke:#838384;stroke-miterlimit:10;}
	.st24{fill:#3B69A0;}
	.st25{fill-rule:evenodd;clip-rule:evenodd;fill:#3B69A0;}
</style>
<g>
	<g>
		<g>
			<path class="st24" d="M66.2,31.5c-2.5-2.3-10.2-7.3-16.6-13.7C43.2,11.5,38.1,3.7,35.9,1.3c-1.7-1.7-2.7-1.7-4.4,0
				c-2.2,2.5-7.3,10.2-13.7,16.6C11.4,24.3,3.7,29.5,1.3,31.5c-1.7,1.7-1.7,2.7,0,4.4c2.5,2.2,10.2,7.3,16.6,13.7
				c6.4,6.4,11.5,14.1,13.7,16.6c1.7,1.7,2.7,1.7,4.4,0c2.2-2.5,7.3-10.2,13.7-16.6c6.4-6.4,14.2-11.7,16.6-13.7
				C67.9,34.2,67.9,33.2,66.2,31.5z M58.5,35.5c-0.7,1-5.4,7.2-10.9,12.7l0,0c-5.5,5.5-11,9.6-12,10.4l0,0c-1,0.8-2.7,0.8-3.8,0
				c-1-0.7-6.8-5.1-12.3-10.6l0,0c-5.5-5.5-9.9-11.3-10.6-12.3l0,0c-0.8-1-0.8-2.7,0-3.8c0.7-1,5.1-6.8,10.6-12.3l0,0
				C25,14.2,30.8,9.7,31.8,9c1-0.8,2.7-0.8,3.8,0l0,0l0,0c1,0.7,6.8,5.1,12.3,10.6l0,0c5.5,5.5,9.9,11.4,10.6,12.4l0,0
				C59.4,33.1,59.3,34.4,58.5,35.5z"/>
			<path class="st24" d="M56.7,32.2c-0.7-0.9-4.8-6.5-9.9-11.5l0,0c-5.1-5.1-10.5-9.2-11.4-9.9l0,0l0,0c-1-0.8-2.5-0.7-3.5,0
				c-0.9,0.7-6.3,4.8-11.4,9.9l0,0c-5.1,5.1-9.2,10.5-9.9,11.4c-0.8,1-0.8,2.5,0,3.5l0,0c0.7,0.9,4.8,6.3,9.9,11.4l0,0
				c5.1,5.1,10.5,9.2,11.4,9.9c1,0.8,2.5,0.8,3.5,0l0,0c0.9-0.7,6.1-4.5,11.1-9.6l0,0c5.1-5.1,9.4-10.9,10.1-11.8
				C57.5,34.4,57.5,33.1,56.7,32.2L56.7,32.2z M33.7,15.9l3.7,10.7l-2.5,0l0.5,10.2c-1.2,0.2-2.1,0.2-3.4,0l0.4-10.2h-2.5L33.7,15.9
				z M31.5,50.2L32,39.6c0.7,0.1,2.9,0.1,3.6,0L36,50.2C34.8,50.5,32.6,50.4,31.5,50.2z M33.1,39c-7.7,0-14-2.5-14-5.6
				c0-2.1,2.9-3.9,7.3-4.9l3.3,2.1C26.3,31.3,24,32.6,24,34c0,2,4.7,3.7,10.5,3.7c5,0,10.6-1.7,10.6-3.7c0-1.3-1.5-2-3-2.8l-2,0.5
				l-1-2.9l6.4,1.6L44,30.8c0,0,2.5,1.3,3,2.7C48,36.6,41.3,39,33.1,39z"/>
		</g>
		<g>
			<path class="st25" d="M45.2,60c-1.3,0-2.4,0.9-2.4,2.4c0,1.5,1.1,2.4,2.4,2.4c1.2,0,2.4-0.9,2.4-2.4C47.6,60.8,46.5,60,45.2,60z
				 M45.2,64.2L45.2,64.2c-0.9,0-1.7-0.7-1.7-1.8c0-1.1,0.8-1.8,1.7-1.8c0.9,0,1.7,0.7,1.7,1.8C46.9,63.4,46.2,64.2,45.2,64.2z
				 M46.3,61.8c0-0.6-0.4-0.8-1-0.8h-0.9v2.5h0.5v-1.1h0.3l0.6,1.1h0.6l-0.7-1.1C46,62.5,46.3,62.3,46.3,61.8z M45.3,62.1h-0.5v-0.6
				h0.4c0.2,0,0.5,0,0.5,0.3C45.7,62.1,45.6,62.1,45.3,62.1z"/>
		</g>
		<polygon class="st24" points="76.9,59.9 76.9,8.9 91,8.9 91,59.9 76.9,59.9 		"/>
		<polygon class="st24" points="98.4,59.9 98.4,8.9 137.3,8.9 137.3,18.8 112.6,18.8 112.6,29.3 135.3,29.3 135.3,39.2 112.6,39.2 
			112.6,50 137.3,50 137.3,59.9 98.4,59.9 		"/>
		<polygon class="st24" points="145.2,59.9 145.2,8.9 184,8.9 184,18.8 159.3,18.8 159.3,29.3 182,29.3 182,39.2 159.3,39.2 
			159.3,50 184,50 184,59.9 145.2,59.9 		"/>
		<polygon class="st24" points="191.9,59.9 191.9,8.9 230.8,8.9 230.8,18.8 206.1,18.8 206.1,29.3 228.8,29.3 228.8,39.2 
			206.1,39.2 206.1,50 230.8,50 230.8,59.9 191.9,59.9 		"/>
	</g>
</g>
</svg>
