<?xml version="1.0" encoding="utf-8"?>
<!-- Generator: Adobe Illustrator 21.0.1, SVG Export Plug-In . SVG Version: 6.00 Build 0)  -->
<svg version="1.1" id="Capa_1" xmlns="http://www.w3.org/2000/svg" xmlns:xlink="http://www.w3.org/1999/xlink" x="0px" y="0px"
	 viewBox="0 0 512 208" style="enable-background:new 0 0 512 208;" xml:space="preserve">
<style type="text/css">
	.st0{fill:#FFFFFF;}
	.st1{fill-rule:evenodd;clip-rule:evenodd;fill:#FFFFFF;}
</style>
<g>
	<path class="st0" d="M153.9,178.1H36V60.2h117.9V178.1z M37,177.1h115.9V61.2H37V177.1z"/>
</g>
<g>
	<g>
		<path class="st0" d="M82.7,144c-2,1.4-6.7,5.2-5.8,8.1c0.1,0.5,0.4,0.9,0.8,1.3c-2.3-4.2,9.5-10.6,12.7-12.3
			c4.5-2.3,9.2-4.2,14-5.9c8.5-3,27.3-8.5,32-15.4c-3.6,3.3-8.3,5.6-13,7.4C109.7,132.3,95,135.6,82.7,144z"/>
	</g>
	<g>
		<path class="st0" d="M39.3,63.5v111.3h111.3V63.5H39.3z M88.2,82.8c4.8,2.3,9.3,5.4,13.4,9.1c-5.8,1.7-11.4,4.2-16.5,7.4
			C80.3,91.9,74.5,84,69.4,82.1c4,2.7,7.2,6.7,10,10.8c1.6,2.3,3.1,4.7,4.6,7.1c-1,0.7-2,1.3-3,2.1c-1.5-2.4-3-4.8-4.6-7.2
			c-4.7-6.9-10.7-13.3-19.1-12.6C65,76.8,76.7,77.2,88.2,82.8z M63,122.5c-1.6-2.1-3-4.4-4.3-6.7c-1.7-3.2-3-6.4-3.9-10
			c-1-4.2-1.3-9.1,0.4-12.2c-1.9,1.9-2.1,6.1-2,8.2c0,1,0.1,2,0.3,3.1c0.4,2.4,1.1,5,2,7.2c1.7,4.2,4,8.3,6.8,11.9
			c-0.6,1.3-1.1,2.6-1.6,3.9c-3.8-4.6-6.7-9.6-8.6-14.5c-0.8-2.1-1.7-4.9-2.2-8c-0.2-1.2-0.3-2.4-0.4-3.5c-0.5-13.5,8.7-17,17.6-7.7
			c1.1,1.1,2.1,2.4,3.1,3.8c2,2.8,3.8,5.5,5.5,8.2c-5.1,4.6-9.5,10-12.7,16C63.1,122.3,63,122.4,63,122.5z M66.4,149.3
			c-7.6-13,1.6-33.1,20.8-45.4c7.3-4.7,15.1-7.5,22.3-8.6c2.2-0.3,5.3-0.5,8.4-0.3c1.3,0.1,2.4,0.2,3.5,0.5
			c13.5,2.6,14.8,12.6,3.5,19.2c-1.3,0.8-2.8,1.5-4.5,2.2c-14.8,6.1-28.1,8.5-42.4,17.5C72.6,137.7,66.7,142.4,66.4,149.3z
			 M131.3,138.1c-3.6,4.4-8,8.4-12.9,11.7c-8.6,5.8-19.1,9.8-29.9,10c-15.9,0.4-21-9.8-7.8-18.9c12.8-8.8,27.3-11.9,41.5-17.3
			c7.9-3,15.7-7.5,16.9-15.9C142.6,116.6,139.5,128.1,131.3,138.1z"/>
	</g>
	<g>
		<path class="st0" d="M89.4,108.5c5-3.1,10.5-5.7,16.2-7.2c3.6-1,7.1-1.5,10.8-1.5c4.4,0,9.3,0.8,12,3.2c-1.4-2.3-5.5-3.5-7.6-3.9
			c-1-0.2-2.1-0.3-3.1-0.4c-2.5-0.2-5.1-0.1-7.6,0.3c-7.4,1.1-14.6,4-20.9,8c-7.4,4.7-14.2,11.4-18.3,19.2c-1.5,2.9-2.7,6.2-3.2,9.6
			C70.3,124.5,79.9,114.6,89.4,108.5z"/>
	</g>
</g>
<g>
	<g>
		<path class="st0" d="M331.4,148.3h1.7l1.9,10h-1.5l-0.3-1.8h-1.8l-0.3,1.8h-1.5L331.4,148.3z M333,155.4l-0.7-5h-0.1l-0.7,5H333z"
			/>
	</g>
	<g>
		<path class="st0" d="M336,148.3h1.6c0.2,0,0.4,0,0.6,0s0.4,0.1,0.7,0.1s0.4,0.2,0.7,0.3s0.4,0.3,0.6,0.5s0.3,0.5,0.4,0.8
			s0.1,0.7,0.1,1.2v0.3c0,0.8-0.1,1.4-0.3,1.9s-0.5,0.8-1,1l1.6,4h-1.6l-1.3-3.7h-0.6v3.7H336V148.3z M337.7,153.5
			c0.3,0,0.5,0,0.7-0.1s0.3-0.2,0.4-0.3s0.2-0.3,0.2-0.6s0.1-0.5,0.1-0.8v-0.8c0-0.3,0-0.5-0.1-0.7s-0.1-0.3-0.2-0.5
			s-0.3-0.2-0.4-0.3s-0.4-0.1-0.7-0.1h-0.2v4.1H337.7z"/>
	</g>
	<g>
		<path class="st0" d="M342.1,148.3h2l1,3.9c0.1,0.4,0.2,0.8,0.2,1.2s0.1,0.8,0.2,1.1h0c0.1-0.3,0.1-0.7,0.2-1.1s0.1-0.8,0.2-1.2
			l1-3.9h1.9v10h-1.4V155c0-0.5,0-1,0-1.5s0-0.9,0-1.3s0-0.7,0.1-1s0-0.5,0.1-0.7h-0.1l-1.5,6.5h-1l-1.5-6.5h-0.1
			c0,0.2,0,0.4,0.1,0.7s0,0.6,0.1,1s0,0.8,0,1.3s0,1,0,1.5v3.3h-1.4V148.3z"/>
	</g>
	<g>
		<path class="st0" d="M350.6,148.3h3.7v1.2h-2.2v3h1.7v1.2h-1.7v3.4h2.3v1.2h-3.8V148.3z"/>
	</g>
	<g>
		<path class="st0" d="M355.4,148.3h1.2l2.4,6.7h0c0-0.2,0-0.3,0-0.5s0-0.4-0.1-0.7s0-0.5,0-0.8s0-0.7,0-1v-3.7h1.4v10h-1.2
			l-2.4-6.5h0c0,0.2,0,0.4,0,0.6s0,0.4,0.1,0.7s0,0.6,0,1s0,0.8,0,1.3v2.9h-1.3V148.3z"/>
	</g>
	<g>
		<path class="st0" d="M362,148.3h1.5v10H362V148.3z"/>
	</g>
	<g>
		<path class="st0" d="M366.4,148.3h1.7l1.9,10h-1.5l-0.3-1.8h-1.8l-0.3,1.8h-1.5L366.4,148.3z M368,155.4l-0.7-5h-0.1l-0.7,5H368z"
			/>
	</g>
	<g>
		<path class="st0" d="M371,156.3h1.5l-0.9,4h-1.2L371,156.3z"/>
	</g>
	<g>
		<path class="st0" d="M378.1,158.4c-0.2,0-0.4-0.1-0.7-0.2s-0.4-0.3-0.6-0.6s-0.3-0.6-0.4-1s-0.2-0.9-0.2-1.5v-3.5
			c0-0.5,0-0.9,0.1-1.3s0.2-0.7,0.3-0.9s0.3-0.4,0.5-0.6s0.3-0.3,0.5-0.3s0.4-0.1,0.6-0.1s0.4,0,0.5,0c0.1,0,0.3,0,0.5,0
			s0.4,0.1,0.5,0.1s0.4,0.2,0.5,0.3s0.3,0.3,0.5,0.6s0.2,0.5,0.3,0.9s0.1,0.8,0.1,1.3v3.5c0,0.6-0.1,1.1-0.2,1.5s-0.3,0.7-0.4,1
			s-0.4,0.4-0.6,0.6s-0.4,0.2-0.6,0.3v0.1c0,0.2,0,0.3,0.1,0.5s0.1,0.2,0.2,0.3s0.2,0.1,0.3,0.1s0.3,0,0.5,0c0.1,0,0.1,0,0.2,0
			s0.1,0,0.2,0v0.8c-0.2,0.1-0.4,0.1-0.5,0.2s-0.3,0-0.5,0c-0.1,0-0.2,0-0.3,0s-0.2,0-0.3-0.1s-0.2-0.1-0.3-0.2s-0.2-0.2-0.3-0.3
			s-0.2-0.3-0.2-0.4s-0.1-0.4-0.1-0.6V158.4z M378.8,157.3c0.1,0,0.3,0,0.4-0.1s0.2-0.1,0.3-0.3s0.1-0.3,0.2-0.5s0.1-0.5,0.1-0.8
			v-4.6c0-0.3,0-0.6-0.1-0.8s-0.1-0.4-0.2-0.5s-0.2-0.2-0.3-0.3s-0.2-0.1-0.4-0.1c-0.2,0-0.3,0-0.4,0.1s-0.2,0.1-0.3,0.3
			s-0.1,0.3-0.2,0.5s-0.1,0.5-0.1,0.8v4.6c0,0.3,0,0.6,0.1,0.8s0.1,0.4,0.2,0.5s0.2,0.2,0.3,0.3S378.6,157.3,378.8,157.3z"/>
	</g>
	<g>
		<path class="st0" d="M382.7,148.3h1.5v7.3c0,0.3,0,0.6,0,0.8s0.1,0.4,0.1,0.5s0.2,0.2,0.3,0.3s0.2,0.1,0.4,0.1s0.3,0,0.4-0.1
			s0.2-0.1,0.3-0.3s0.1-0.3,0.2-0.5s0.1-0.5,0.1-0.8v-7.3h1.5v6.9c0,0.5,0,0.9-0.1,1.3s-0.2,0.6-0.3,0.9s-0.3,0.4-0.4,0.6
			s-0.3,0.2-0.5,0.3s-0.4,0.1-0.5,0.1s-0.3,0-0.5,0s-0.3,0-0.5,0s-0.3-0.1-0.5-0.1s-0.3-0.2-0.5-0.3s-0.3-0.3-0.4-0.6
			s-0.2-0.5-0.3-0.9s-0.1-0.8-0.1-1.3V148.3z"/>
	</g>
	<g>
		<path class="st0" d="M389.1,148.3h1.5v10h-1.5V148.3z"/>
	</g>
	<g>
		<path class="st0" d="M392.4,148.3h1.2l2.4,6.7h0c0-0.2,0-0.3,0-0.5s0-0.4-0.1-0.7s0-0.5,0-0.8s0-0.7,0-1v-3.7h1.4v10H396l-2.4-6.5
			h0c0,0.2,0,0.4,0,0.6s0,0.4,0.1,0.7s0,0.6,0,1s0,0.8,0,1.3v2.9h-1.3V148.3z"/>
	</g>
	<g>
		<path class="st0" d="M399,148.3h1.6c0.2,0,0.5,0,0.7,0s0.5,0.1,0.8,0.1s0.5,0.2,0.7,0.3s0.4,0.4,0.6,0.6s0.3,0.6,0.4,1
			s0.1,0.9,0.1,1.5v2.9c0,0.6,0,1.1-0.1,1.5s-0.2,0.7-0.4,1s-0.4,0.5-0.6,0.6s-0.4,0.3-0.7,0.3s-0.5,0.1-0.8,0.1s-0.5,0-0.7,0H399
			V148.3z M400.9,157.3c0.3,0,0.5,0,0.7-0.1s0.3-0.2,0.4-0.4s0.2-0.4,0.2-0.7s0.1-0.7,0.1-1.2v-3.1c0-0.5,0-0.9-0.1-1.2
			s-0.1-0.5-0.2-0.7s-0.2-0.3-0.4-0.4s-0.4-0.1-0.7-0.1h-0.4v7.8H400.9z"/>
	</g>
	<g>
		<path class="st0" d="M405.2,148.3h1.5v10h-1.5V148.3z M405.3,147.5l1.9-1.3l0.8,1l-2,1L405.3,147.5z"/>
	</g>
	<g>
		<path class="st0" d="M410.6,158.4c-0.2,0-0.3,0-0.5,0s-0.4-0.1-0.6-0.2s-0.4-0.2-0.5-0.3s-0.3-0.3-0.5-0.6s-0.2-0.5-0.3-0.9
			s-0.1-0.8-0.1-1.3v-3.5c0-0.5,0-0.9,0.1-1.3s0.2-0.7,0.3-0.9s0.3-0.4,0.5-0.6s0.3-0.3,0.5-0.3s0.4-0.1,0.6-0.1s0.4,0,0.5,0
			c0.1,0,0.3,0,0.5,0s0.4,0.1,0.5,0.1s0.4,0.2,0.5,0.3s0.3,0.3,0.5,0.6s0.2,0.5,0.3,0.9s0.1,0.8,0.1,1.3v3.5c0,0.5,0,0.9-0.1,1.3
			s-0.2,0.7-0.3,0.9s-0.3,0.4-0.5,0.6s-0.4,0.3-0.5,0.4s-0.4,0.1-0.5,0.2S410.8,158.4,410.6,158.4z M410.6,157.3
			c0.1,0,0.3,0,0.4-0.1s0.2-0.1,0.3-0.3s0.1-0.3,0.2-0.5s0.1-0.5,0.1-0.8v-4.6c0-0.3,0-0.6-0.1-0.8s-0.1-0.4-0.2-0.5
			s-0.2-0.2-0.3-0.3s-0.2-0.1-0.4-0.1c-0.2,0-0.3,0-0.4,0.1s-0.2,0.1-0.3,0.3s-0.1,0.3-0.2,0.5s-0.1,0.5-0.1,0.8v4.6
			c0,0.3,0,0.6,0.1,0.8s0.1,0.4,0.2,0.5s0.2,0.2,0.3,0.3S410.5,157.3,410.6,157.3z"/>
	</g>
	<g>
		<path class="st0" d="M332.5,170.8c-0.2,0-0.3,0-0.5,0s-0.4-0.1-0.5-0.2s-0.4-0.2-0.5-0.3s-0.3-0.3-0.4-0.6s-0.2-0.5-0.3-0.9
			s-0.1-0.8-0.1-1.3v-3.5c0-0.5,0-0.9,0.1-1.3s0.2-0.7,0.3-0.9s0.3-0.4,0.4-0.6s0.3-0.3,0.5-0.3s0.4-0.1,0.5-0.1s0.3,0,0.5,0
			c0.4,0,0.7,0.1,1,0.2s0.5,0.3,0.6,0.5s0.3,0.4,0.3,0.7s0.1,0.5,0.1,0.8c0,0.2,0,0.4,0,0.6s-0.1,0.4-0.1,0.6h-1.2v-0.5
			c0-0.6-0.1-1-0.2-1.2s-0.3-0.4-0.5-0.4c-0.1,0-0.3,0-0.4,0.1s-0.2,0.1-0.3,0.3s-0.1,0.3-0.2,0.5s-0.1,0.5-0.1,0.8v4.6
			c0,0.3,0,0.6,0,0.8s0.1,0.4,0.1,0.5s0.2,0.2,0.3,0.3s0.2,0.1,0.4,0.1c0.1,0,0.2,0,0.3-0.1s0.2-0.1,0.2-0.2s0.1-0.2,0.2-0.4
			s0.1-0.3,0.1-0.5v-1h1.4v0.9c0,0.8-0.2,1.4-0.6,1.8S333.1,170.8,332.5,170.8z"/>
	</g>
	<g>
		<path class="st0" d="M338,170.8c-0.2,0-0.3,0-0.5,0s-0.4-0.1-0.6-0.2s-0.4-0.2-0.5-0.3s-0.3-0.3-0.5-0.6s-0.2-0.5-0.3-0.9
			s-0.1-0.8-0.1-1.3v-3.5c0-0.5,0-0.9,0.1-1.3s0.2-0.7,0.3-0.9s0.3-0.4,0.5-0.6s0.3-0.3,0.5-0.3s0.4-0.1,0.6-0.1s0.4,0,0.5,0
			c0.1,0,0.3,0,0.5,0s0.4,0.1,0.5,0.1s0.4,0.2,0.5,0.3s0.3,0.3,0.5,0.6s0.2,0.5,0.3,0.9s0.1,0.8,0.1,1.3v3.5c0,0.5,0,0.9-0.1,1.3
			s-0.2,0.7-0.3,0.9s-0.3,0.4-0.5,0.6s-0.4,0.3-0.5,0.4s-0.4,0.1-0.5,0.2S338.1,170.8,338,170.8z M338,169.7c0.1,0,0.3,0,0.4-0.1
			s0.2-0.1,0.3-0.3s0.1-0.3,0.2-0.5s0.1-0.5,0.1-0.8v-4.6c0-0.3,0-0.6-0.1-0.8s-0.1-0.4-0.2-0.5s-0.2-0.2-0.3-0.3s-0.2-0.1-0.4-0.1
			c-0.2,0-0.3,0-0.4,0.1s-0.2,0.1-0.3,0.3s-0.1,0.3-0.2,0.5s-0.1,0.5-0.1,0.8v4.6c0,0.3,0,0.6,0.1,0.8s0.1,0.4,0.2,0.5
			s0.2,0.2,0.3,0.3S337.8,169.7,338,169.7z"/>
	</g>
	<g>
		<path class="st0" d="M341.9,160.7h1.5v8.8h2.1v1.2h-3.6V160.7z"/>
	</g>
	<g>
		<path class="st0" d="M348.7,170.8c-0.2,0-0.3,0-0.5,0s-0.4-0.1-0.6-0.2s-0.4-0.2-0.5-0.3s-0.3-0.3-0.5-0.6s-0.2-0.5-0.3-0.9
			s-0.1-0.8-0.1-1.3v-3.5c0-0.5,0-0.9,0.1-1.3s0.2-0.7,0.3-0.9s0.3-0.4,0.5-0.6s0.3-0.3,0.5-0.3s0.4-0.1,0.6-0.1s0.4,0,0.5,0
			c0.1,0,0.3,0,0.5,0s0.4,0.1,0.5,0.1s0.4,0.2,0.5,0.3s0.3,0.3,0.5,0.6s0.2,0.5,0.3,0.9s0.1,0.8,0.1,1.3v3.5c0,0.5,0,0.9-0.1,1.3
			s-0.2,0.7-0.3,0.9s-0.3,0.4-0.5,0.6s-0.4,0.3-0.5,0.4s-0.4,0.1-0.5,0.2S348.8,170.8,348.7,170.8z M348.7,169.7
			c0.1,0,0.3,0,0.4-0.1s0.2-0.1,0.3-0.3s0.1-0.3,0.2-0.5s0.1-0.5,0.1-0.8v-4.6c0-0.3,0-0.6-0.1-0.8s-0.1-0.4-0.2-0.5
			s-0.2-0.2-0.3-0.3s-0.2-0.1-0.4-0.1c-0.2,0-0.3,0-0.4,0.1s-0.2,0.1-0.3,0.3s-0.1,0.3-0.2,0.5s-0.1,0.5-0.1,0.8v4.6
			c0,0.3,0,0.6,0.1,0.8s0.1,0.4,0.2,0.5s0.2,0.2,0.3,0.3S348.5,169.7,348.7,169.7z"/>
	</g>
	<g>
		<path class="st0" d="M352.6,160.7h2l1,3.9c0.1,0.4,0.2,0.8,0.2,1.2s0.1,0.8,0.2,1.1h0c0.1-0.3,0.1-0.7,0.2-1.1s0.1-0.8,0.2-1.2
			l1-3.9h1.9v10h-1.4v-3.3c0-0.5,0-1,0-1.5s0-0.9,0-1.3s0-0.7,0.1-1s0-0.5,0.1-0.7h-0.1l-1.5,6.5h-1l-1.5-6.5h-0.1
			c0,0.2,0,0.4,0.1,0.7s0,0.6,0.1,1s0,0.8,0,1.3s0,1,0,1.5v3.3h-1.4V160.7z"/>
	</g>
	<g>
		<path class="st0" d="M361,160.7h1.5c0.2,0,0.5,0,0.7,0s0.5,0,0.7,0.1s0.4,0.1,0.7,0.2s0.4,0.2,0.5,0.4s0.3,0.4,0.4,0.6
			s0.1,0.5,0.1,0.9v0.5c0,0.3,0,0.5-0.1,0.7s-0.2,0.4-0.3,0.6s-0.3,0.3-0.4,0.4s-0.3,0.2-0.5,0.2v0c0.5,0.1,0.9,0.3,1.1,0.7
			s0.4,0.9,0.4,1.5v0.5c0,0.4,0,0.7-0.1,0.9s-0.2,0.5-0.3,0.7s-0.3,0.3-0.5,0.5s-0.4,0.2-0.7,0.3s-0.5,0.1-0.8,0.1s-0.5,0-0.8,0H361
			V160.7z M362.8,165c0.2,0,0.4,0,0.6-0.1s0.3-0.1,0.4-0.2s0.2-0.2,0.3-0.4s0.1-0.4,0.1-0.6v-0.4c0-0.2,0-0.4-0.1-0.6
			s-0.1-0.3-0.2-0.5s-0.2-0.2-0.4-0.3s-0.4-0.1-0.6-0.1h-0.3v3.2H362.8z M362.9,169.7c0.2,0,0.4,0,0.6-0.1s0.3-0.1,0.4-0.2
			s0.2-0.3,0.3-0.4s0.1-0.4,0.1-0.6v-0.8c0-0.2,0-0.4-0.1-0.6s-0.1-0.3-0.2-0.5s-0.2-0.2-0.4-0.3s-0.4-0.1-0.6-0.1h-0.4v3.6H362.9z"
			/>
	</g>
	<g>
		<path class="st0" d="M367.2,160.7h1.5v10h-1.5V160.7z"/>
	</g>
	<g>
		<path class="st0" d="M371.5,160.7h1.7l1.9,10h-1.5l-0.3-1.8h-1.8l-0.3,1.8h-1.5L371.5,160.7z M373.1,167.8l-0.7-5h-0.1l-0.7,5
			H373.1z"/>
	</g>
</g>
<g>
	<g>
		<g>
			<path class="st0" d="M228.4,149.2c-2.1,0-4.3-0.6-6.4-1.7c-2.1-1.1-4.3-2.4-6.5-4c-2.2-1.6-4.4-3.3-6.7-5.2
				c-2.3-1.9-4.6-3.6-7-5.2c-2.4-1.6-4.9-2.9-7.5-4c-2.5-1.1-5.2-1.6-7.8-1.6h-1.1c-0.3,0-0.7,0-1,0.1l-0.7,0.1l14.2-65.9
				c-3.7,1.7-6.6,4.1-8.7,7.3c-2.3,3.4-3.4,7.6-3.4,12.6c0,2.2,0.2,3.6,0.5,4.4c0.3,0.9,0.6,1.5,0.8,1.9l0.3,0.7h-0.8
				c-3.2,0-5.8-0.7-7.7-2.1c-1.9-1.4-2.9-3.8-2.9-7.2c0-3.5,1-6.8,3.1-9.9c2-3.1,4.6-5.8,7.9-8.2c3.2-2.3,6.8-4.2,10.9-5.6
				c4-1.4,8.1-2.1,12-2.1c0.7,0,1.4,0,2,0c0.6,0,1.3,0.1,1.9,0.1l0.6,0.1l-14.7,68.6c2.4,0.6,4.7,1.5,7.1,2.8c2.5,1.3,5,2.7,7.7,4.1
				c2.6,1.4,5.3,2.6,8.1,3.7c2.7,1.1,5.7,1.6,8.7,1.6c1.2,0,2.4-0.1,3.7-0.3c1.3-0.2,2.6-0.6,4-1.2l0.8-0.3l-0.1,0.8
				c-0.5,4.6-1.6,8.4-3.4,11.1C234.3,147.7,231.7,149.2,228.4,149.2z"/>
		</g>
	</g>
	<g>
		<path class="st0" d="M218.1,125.6c-0.2-2.2,0.3-4.7,1-7.6c0.7-2.9,1.6-6.1,2.9-9.5c1.2-3.4,2.7-7,4.4-10.7c1.7-3.7,3.6-7.4,5.7-11
			c-3,0.2-5.4,0.6-7.3,1.4c-1.9,0.7-3.2,1.9-3.8,3.5c0.3,0,0.5,0.3,0.8,0.9c0.3,0.6,0.4,1.3,0.4,2c0,1.1-0.5,2-1.6,2.7
			c-1,0.7-2.3,1-3.8,1c-1.7,0-3.1-0.5-4.2-1.4c-1.1-0.9-1.7-2.3-1.7-4.1c0-1.6,0.5-3.1,1.5-4.5c1-1.4,2.3-2.7,4.1-3.8
			c1.7-1.1,3.8-1.9,6.1-2.5c2.4-0.6,4.9-0.9,7.6-0.9c1.4,0,3.1,0.1,5.2,0.3c2.4-3.8,5-7.4,7.7-10.8c2.7-3.4,5.5-6.4,8.3-8.9
			c2.9-2.6,5.8-4.6,8.7-6.1c2.9-1.5,5.8-2.2,8.7-2.2c1,0,2.1,0.1,3.5,0.3c1.4,0.2,2.7,0.5,3.8,1l-15,70.2h-13.7l7.3-34.6
			c-2.4-1.1-4.6-1.9-6.6-2.4c-2-0.5-4.1-0.9-6.2-1c-1.8,3.9-3.4,7.9-5,12c-1.5,4.1-2.8,8.1-3.9,11.9c-1.1,3.8-1.9,7.4-2.6,10.7
			c-0.6,3.3-1,6.2-1,8.6C229.5,130,218.7,134.9,218.1,125.6z M261.1,60.1c-2.9,1.5-5.8,4.3-8.7,8.4c-3,4.1-5.8,8.8-8.4,14.1
			c2,0.4,3.9,0.8,5.9,1.4c2,0.5,3.9,1.2,5.7,2L261.1,60.1z"/>
	</g>
	<g>
		<path class="st0" d="M321.3,64.8c0,2.8-0.7,5.1-2.1,6.9c-1.4,1.8-3.3,2.7-5.7,2.7c-1.8,0-3.2-0.7-4.4-2c1.3-0.8,2.3-1.9,3.1-3.5
			c0.8-1.6,1.2-3.1,1.2-4.7c0-1.7-0.5-3.1-1.5-4.4c-1-1.3-2.9-1.9-5.5-1.9c-2.7,0-4.8,0.7-6.4,2.1c-1.6,1.4-2.4,3.6-2.4,6.4
			c0,2.4,0.5,4.4,1.6,6.2c1,1.7,2.4,3.4,4,5c1.6,1.6,3.3,3.1,5.2,4.7c1.9,1.6,3.6,3.3,5.2,5.2c1.6,1.9,2.9,4.1,4,6.6
			c1,2.5,1.6,5.4,1.6,8.9c0,4-0.7,7.5-2.2,10.4c-1.5,3-3.5,5.4-6,7.3c-2.5,1.9-5.3,3.4-8.6,4.3c-3.2,1-6.6,1.4-10,1.4
			c-2.7,0-5.3-0.3-7.8-0.9c-2.4-0.6-4.6-1.5-6.4-2.8c-1.8-1.3-3.3-3-4.4-5c-1.1-2-1.6-4.5-1.6-7.4c0-2.5,0.4-4.8,1.2-6.8
			c0.8-2,1.9-3.6,3.2-4.9c1.3-1.3,2.8-2.3,4.5-3c1.7-0.7,3.4-1,5-1c0.8,0,1.7,0.1,2.6,0.3s1.8,0.5,2.6,1c0.8,0.5,1.5,1.1,2.1,2
			c0.6,0.8,1,1.8,1.1,3.1c-1.3,0-2.7,0.2-4,0.5c-1.3,0.4-2.5,0.9-3.6,1.6s-2,1.7-2.7,2.9c-0.7,1.2-1,2.6-1,4.2
			c0,2.4,0.8,4.5,2.4,6.1c1.6,1.7,4,2.5,7,2.5c3.2,0,5.9-1.1,7.9-3.2c2-2.1,3.1-5.2,3.1-9.2c0-2.7-0.5-5.2-1.4-7.4s-2.2-4.2-3.6-6.1
			c-1.5-1.9-3-3.7-4.7-5.4c-1.7-1.7-3.3-3.5-4.7-5.2c-1.5-1.7-2.7-3.6-3.6-5.5c-1-1.9-1.4-4.1-1.4-6.4c0-2.5,0.6-4.8,1.7-6.9
			c1.1-2.1,2.7-3.9,4.7-5.4c2-1.5,4.3-2.7,7-3.5c2.7-0.9,5.6-1.3,8.6-1.3c1.1,0,2.6,0.1,4.3,0.3c1.7,0.2,3.4,0.7,5.1,1.5
			c1.7,0.8,3.1,1.9,4.2,3.4C320.8,60.1,321.3,62.1,321.3,64.8z"/>
	</g>
	<g>
		<path class="st0" d="M374.7,108.6c-1.3,2.9-2.9,5.4-5,7.6c-2,2.2-4.3,4.1-6.8,5.6c-2.5,1.5-5.2,2.7-8,3.4
			c-2.9,0.8-5.8,1.1-8.7,1.1c-6.2,0-11.1-1.9-14.5-5.6c-3.4-3.7-5.2-9.6-5.2-17.8c0-2.9,0.2-6.1,0.7-9.7c0.5-3.6,1.3-7.2,2.3-10.9
			c1.1-3.7,2.5-7.2,4.2-10.7c1.7-3.5,3.8-6.6,6.3-9.3c2.5-2.7,5.4-4.9,8.7-6.6s7.1-2.5,11.4-2.5c2.1,0,4.1,0.2,6,0.7
			c1.9,0.5,3.6,1.2,5,2.2c1.4,1,2.5,2.4,3.3,4c0.8,1.7,1.2,3.7,1.2,6c0,2.4-0.5,4.5-1.5,6.1c-1,1.7-2.7,2.5-5.2,2.5
			c-0.8,0-1.6-0.1-2.6-0.4s-1.9-1-2.8-2.1c1.1-0.6,2.2-1.7,3.1-3.5c0.9-1.7,1.3-3.5,1.3-5.2c0-1.6-0.4-3-1.3-4.1
			c-0.9-1.2-2.3-1.8-4.1-1.8c-1.8,0-3.6,0.7-5.3,2c-1.7,1.3-3.3,3.1-4.8,5.2c-1.5,2.2-2.9,4.8-4.1,7.7s-2.3,6.1-3.2,9.3
			c-0.9,3.3-1.6,6.6-2.1,10.1c-0.5,3.4-0.7,6.7-0.7,9.9c0,2.3,0.2,4.4,0.5,6.3c0.3,1.9,0.9,3.6,1.7,5c0.8,1.4,2,2.5,3.5,3.2
			c1.5,0.8,3.4,1.1,5.7,1.1c3.6,0,7.1-0.9,10.4-2.7c3.3-1.8,6.1-4.2,8.3-7.3L374.7,108.6z"/>
	</g>
	<g>
		<path class="st0" d="M403.4,124.8l7.3-34.6c-2.4-1.1-4.6-1.9-6.6-2.4c-2-0.5-4.1-0.9-6.2-1c-1.8,3.9-3.4,7.9-5,12
			c-1.5,4.1-2.8,8.1-3.9,11.9c-1.1,3.8-1.9,7.4-2.6,10.7c-0.6,3.3-1,6.2-1,8.6c0,1.8,0.1,3.1,0.4,3.9c0.3,0.8,0.6,1.4,0.9,1.8
			c-1.3,0-2.7-0.1-4.1-0.2c-1.5-0.1-2.9-0.5-4.1-1.1c-1.3-0.6-2.3-1.6-3.2-3s-1.3-3.3-1.3-5.8c0-2.2,0.3-4.7,1-7.6
			c0.7-2.9,1.6-6.1,2.9-9.5c1.2-3.4,2.7-7,4.4-10.7c1.7-3.7,3.6-7.4,5.7-11c-3,0.2-5.4,0.6-7.3,1.4c-1.9,0.7-3.2,1.9-3.8,3.5
			c0.3,0,0.5,0.3,0.8,0.9c0.3,0.6,0.4,1.3,0.4,2c0,1.1-0.5,2-1.6,2.7c-1,0.7-2.3,1-3.8,1c-1.7,0-3.1-0.5-4.2-1.4
			c-1.1-0.9-1.7-2.3-1.7-4.1c0-1.6,0.5-3.1,1.5-4.5c1-1.4,2.3-2.7,4.1-3.8c1.7-1.1,3.8-1.9,6.1-2.5c2.4-0.6,4.9-0.9,7.6-0.9
			c1.4,0,3.1,0.1,5.2,0.3c2.4-3.8,5-7.4,7.7-10.8c2.7-3.4,5.5-6.4,8.3-8.9c2.9-2.6,5.8-4.6,8.7-6.1c2.9-1.5,5.8-2.2,8.7-2.2
			c1,0,2.1,0.1,3.5,0.3c1.4,0.2,2.7,0.5,3.8,1l-15,70.2H403.4z M417.1,60.1c-2.9,1.5-5.8,4.3-8.7,8.4c-3,4.1-5.8,8.8-8.4,14.1
			c2,0.4,3.9,0.8,5.9,1.4c2,0.5,3.9,1.2,5.7,2L417.1,60.1z"/>
	</g>
	<g>
		<path class="st0" d="M477.4,64.8c0,2.8-0.7,5.1-2.1,6.9c-1.4,1.8-3.3,2.7-5.7,2.7c-1.8,0-3.2-0.7-4.4-2c1.3-0.8,2.3-1.9,3.1-3.5
			c0.8-1.6,1.2-3.1,1.2-4.7c0-1.7-0.5-3.1-1.5-4.4c-1-1.3-2.9-1.9-5.5-1.9c-2.7,0-4.8,0.7-6.4,2.1c-1.6,1.4-2.4,3.6-2.4,6.4
			c0,2.4,0.5,4.4,1.6,6.2c1,1.7,2.4,3.4,4,5c1.6,1.6,3.3,3.1,5.2,4.7c1.9,1.6,3.6,3.3,5.2,5.2c1.6,1.9,2.9,4.1,4,6.6
			s1.6,5.4,1.6,8.9c0,4-0.7,7.5-2.2,10.4c-1.5,3-3.5,5.4-6,7.3c-2.5,1.9-5.3,3.4-8.6,4.3c-3.2,1-6.6,1.4-10,1.4
			c-2.7,0-5.3-0.3-7.8-0.9c-2.4-0.6-4.6-1.5-6.4-2.8c-1.8-1.3-3.3-3-4.4-5c-1.1-2-1.6-4.5-1.6-7.4c0-2.5,0.4-4.8,1.2-6.8
			c0.8-2,1.9-3.6,3.2-4.9c1.3-1.3,2.8-2.3,4.5-3c1.7-0.7,3.4-1,5-1c0.8,0,1.7,0.1,2.6,0.3s1.8,0.5,2.6,1c0.8,0.5,1.5,1.1,2.1,2
			c0.6,0.8,1,1.8,1.1,3.1c-1.3,0-2.7,0.2-4,0.5c-1.3,0.4-2.5,0.9-3.6,1.6c-1.1,0.7-2,1.7-2.7,2.9s-1,2.6-1,4.2
			c0,2.4,0.8,4.5,2.4,6.1c1.6,1.7,4,2.5,7,2.5c3.2,0,5.9-1.1,7.9-3.2c2-2.1,3.1-5.2,3.1-9.2c0-2.7-0.5-5.2-1.4-7.4s-2.2-4.2-3.6-6.1
			c-1.5-1.9-3-3.7-4.7-5.4c-1.7-1.7-3.3-3.5-4.7-5.2c-1.5-1.7-2.7-3.6-3.6-5.5c-1-1.9-1.4-4.1-1.4-6.4c0-2.5,0.6-4.8,1.7-6.9
			c1.1-2.1,2.7-3.9,4.7-5.4c2-1.5,4.3-2.7,7-3.5c2.7-0.9,5.6-1.3,8.6-1.3c1.1,0,2.6,0.1,4.3,0.3c1.7,0.2,3.4,0.7,5.1,1.5
			c1.7,0.8,3.1,1.9,4.2,3.4C476.8,60.1,477.4,62.1,477.4,64.8z"/>
	</g>
</g>
<g>
	<g>
		<path class="st0" d="M206.1,140.2c-0.9-0.8-2.1-1.5-3.5-2c-1.5-0.5-3.2-0.7-5.3-0.7c-2.3,0-4.2,0.3-5.8,0.8
			c-1.6,0.5-2.8,1.2-3.8,2.1c-1,0.8-1.7,1.8-2.1,2.9c-0.4,1.1-0.7,2.2-0.7,3.2c0,1.8,0.4,3.1,1.3,4c0.9,0.8,1.9,1.3,3,1.3
			c0.8,0,1.5-0.2,2.3-0.5c0.8-0.4,1.5-0.9,2.2-1.5c-0.9-0.3-1.5-0.8-1.8-1.7s-0.5-1.7-0.5-2.5c0-0.5,0.1-1,0.2-1.6
			c0.1-0.5,0.3-1,0.7-1.4c0.3-0.4,0.8-0.8,1.3-1c0.5-0.2,1.2-0.4,2.1-0.4c1.5,0,2.6,0.4,3.3,1.3c0.7,0.8,1,2.2,1,4.1
			c0,2.4-0.5,4.6-1.5,6.7c-1,2-2.2,4-3.7,5.8c-1.5,1.8-3,3.6-4.7,5.3s-3.3,3.4-4.7,5.1c-1.5,1.7-2.7,3.5-3.7,5.4
			c-1,1.9-1.5,3.8-1.5,6c0,0.3,0,0.7,0,1s0,0.7,0.1,1c0.3-0.1,0.6-0.3,1-0.4c0.4-0.2,0.8-0.4,1.3-0.5c0.4-0.2,0.8-0.3,1.3-0.5
			c0.4-0.1,0.8-0.2,1.2-0.2c1.5,0,2.8,0.1,4,0.3c1.2,0.2,2.3,0.5,3.4,0.8c1.1,0.3,2.2,0.5,3.3,0.8c1.1,0.2,2.4,0.3,3.8,0.3
			c1.6,0,2.9-0.2,3.9-0.5c1-0.3,1.7-0.8,2.3-1.5c0.5-0.7,0.9-1.5,1.1-2.6c0.2-1.1,0.3-2.3,0.3-3.8c0-0.4,0-0.9,0-1.3s0-0.9-0.1-1.3
			c-0.6,0.7-1.1,1.3-1.6,1.9c-0.5,0.5-1.1,1-1.7,1.3c-0.6,0.3-1.3,0.6-2.1,0.8c-0.8,0.2-1.7,0.2-2.8,0.2c-2,0-4-0.2-5.9-0.5
			c-1.9-0.4-3.7-0.5-5.2-0.5c-0.1,0-0.2,0-0.4,0c-0.1,0-0.2,0-0.4,0c0.7-1.4,1.8-2.8,3.1-4c1.4-1.3,2.8-2.6,4.5-3.9
			c1.6-1.3,3.3-2.7,4.9-4.1c1.7-1.4,3.2-2.9,4.5-4.5c1.4-1.6,2.5-3.3,3.3-5.2c0.9-1.9,1.3-3.9,1.3-6.2c0-1.5-0.2-2.8-0.6-4
			S207,141,206.1,140.2z"/>
	</g>
	<g>
		<path class="st0" d="M240.5,138.8c-0.6,3-1.4,5.5-2.6,7.6c0.1,0.8,0.1,1.7,0.1,2.7c0,3.4-0.3,6.8-0.8,10.1c-0.5,3.4-1.2,6.4-2.2,9
			c-0.9,2.7-2,4.8-3.3,6.5c-1.3,1.7-2.7,2.5-4.3,2.5c-0.8,0-1.5-0.2-2-0.7c-0.5-0.5-0.9-1.1-1.2-1.9c-0.3-0.8-0.5-1.6-0.6-2.5
			c-0.1-0.9-0.2-1.9-0.2-2.9c0-3.4,0.3-6.8,0.9-10c0.5-2.9,1.2-5.5,2.1-7.9c-1.3-0.3-2.5-0.7-3.8-1.4c-1.2-0.6-2.4-1.3-3.7-2.1
			c-1.3,2.4-2.4,5-3.2,8c-1,3.6-1.4,7.5-1.4,11.7c0,2.1,0.2,4.1,0.5,6c0.3,1.9,0.9,3.5,1.7,4.9c0.8,1.4,2,2.5,3.4,3.3
			c1.4,0.8,3.3,1.2,5.6,1.2c2.4,0,4.6-0.5,6.5-1.4s3.7-2.2,5.2-3.7c1.5-1.6,2.8-3.4,3.9-5.4s2-4.2,2.7-6.5c0.7-2.3,1.2-4.5,1.6-6.9
			c0.3-2.3,0.5-4.5,0.5-6.6c0-4.7-0.9-8.3-2.6-11C242.6,140.3,241.6,139.5,240.5,138.8z"/>
	</g>
	<g>
		<path class="st0" d="M259.1,141.6c-1.2,0.3-2.4,0.5-3.4,0.6c-1,0.1-1.9,0.1-2.8,0.1l-1.1,4.3h5.7l-7.6,35.9h8.6l9.5-44.9
			c-1.8,1.1-3.5,1.9-5,2.5C261.7,140.8,260.3,141.3,259.1,141.6z"/>
	</g>
	<g>
		<path class="st0" d="M299,145.4c-0.4-1.7-1.1-3.1-2-4.3c-0.9-1.2-2.2-2-3.8-2.7c-1.6-0.6-3.5-0.9-5.8-0.9c-2.4,0-4.6,0.4-6.5,1.3
			c-2,0.8-3.6,2-5,3.5c-1.4,1.5-2.4,3.2-3.2,5.1c-0.7,1.9-1.1,4-1.1,6.2c0,1.4,0.2,2.7,0.5,4s0.8,2.4,1.5,3.4c0.7,1,1.6,1.8,2.7,2.4
			c1.1,0.6,2.4,0.9,4,0.9c1,0,2-0.1,3-0.4c1-0.3,1.8-0.7,2.6-1.1c0.7-0.5,1.3-1,1.8-1.7c0.5-0.7,0.7-1.4,0.7-2.2
			c0-0.4-0.1-0.9-0.3-1.5c-0.2-0.6-0.6-1-1.2-1.4c-0.5,1.3-1.2,2.3-2,3.1s-1.8,1.1-2.7,1.1c-0.8,0-1.4-0.2-1.9-0.7
			c-0.5-0.5-0.9-1.1-1.1-1.7c-0.3-0.7-0.4-1.4-0.5-2.1c-0.1-0.7-0.1-1.4-0.1-2c0-1.5,0.2-3,0.6-4.5c0.4-1.5,1-2.8,1.7-4
			c0.7-1.2,1.5-2.1,2.5-2.8s2.1-1.1,3.3-1.1c0.7,0,1.3,0.1,1.9,0.4c0.6,0.3,1.1,0.8,1.5,1.5s0.8,1.6,1,2.8c0.2,1.1,0.4,2.6,0.4,4.3
			c0,0.6,0,1.1,0,1.6c0,0.5-0.1,1-0.1,1.6c-0.2,4-0.7,7.4-1.4,10.2c-0.7,2.8-1.4,5-2.2,6.9c-0.8,1.8-1.7,3.2-2.6,4.2
			c-0.9,1-1.8,1.7-2.6,2.2c-0.8,0.5-1.5,0.7-2.1,0.8c-0.6,0.1-1,0.1-1.1,0.1c-0.7,0-1.3-0.1-1.8-0.4c-0.5-0.2-0.8-0.5-1.1-0.9
			c-0.3-0.3-0.5-0.7-0.6-1.1c-0.1-0.4-0.2-0.7-0.2-1c0-0.8,0.3-1.5,0.8-2c-1,0-1.9,0.2-2.5,0.5s-1.2,0.7-1.6,1.1
			c-0.4,0.4-0.7,0.9-0.8,1.5c-0.1,0.6-0.2,1.1-0.2,1.6c0,0.8,0.1,1.5,0.4,2.2c0.3,0.7,0.7,1.3,1.3,1.9c0.6,0.6,1.4,1,2.3,1.3
			c1,0.3,2.1,0.5,3.5,0.5c3,0,5.8-0.9,8.3-2.7c2.5-1.8,4.7-4.1,6.5-7.1c1.8-2.9,3.2-6.3,4.3-10.1c1-3.8,1.5-7.7,1.5-11.8
			C299.6,149,299.4,147.1,299,145.4z"/>
	</g>
</g>
<g>
	<rect x="313" y="143.4" transform="matrix(0.9531 -0.3026 0.3026 0.9531 -33.6905 102.3645)" class="st0" width="1" height="33"/>
</g>
<g>
	<g>
		<path class="st0" d="M71.7,36.3c-1.2-1.1-4.8-3.4-7.8-6.5c-3-3-5.4-6.7-6.5-7.8c-0.8-0.8-1.3-0.8-2.1,0c-1.1,1.2-3.5,4.8-6.5,7.8
			c-3,3-6.7,5.5-7.8,6.5c-0.8,0.8-0.8,1.3,0,2.1c1.2,1,4.8,3.5,7.8,6.5c3,3,5.4,6.7,6.5,7.8c0.8,0.8,1.3,0.8,2.1,0
			c1-1.2,3.4-4.8,6.5-7.8c3-3,6.7-5.5,7.8-6.5C72.5,37.5,72.5,37.1,71.7,36.3 M68.1,38.1c-0.3,0.5-2.6,3.4-5.1,6l0,0
			c-2.6,2.6-5.2,4.6-5.7,4.9l0,0c-0.5,0.4-1.3,0.4-1.8,0c-0.5-0.4-3.2-2.4-5.8-5v0c-2.6-2.6-4.7-5.3-5-5.8v0c-0.4-0.5-0.4-1.3,0-1.8
			c0.4-0.5,2.4-3.2,5-5.8h0c2.6-2.6,5.3-4.7,5.8-5c0.5-0.4,1.3-0.4,1.8,0v0c0.5,0.3,3.2,2.4,5.8,5l0,0c2.6,2.6,4.7,5.4,5,5.9v0
			C68.5,37,68.5,37.6,68.1,38.1"/>
	</g>
	<g>
		<path class="st0" d="M67.2,36.6c-0.3-0.4-2.3-3.1-4.7-5.5v0c-2.4-2.4-4.9-4.3-5.4-4.7v0l0,0c-0.4-0.4-1.2-0.3-1.6,0
			c-0.4,0.3-3,2.3-5.4,4.7h0c-2.4,2.4-4.3,4.9-4.7,5.4c-0.4,0.5-0.4,1.2,0,1.7c0.3,0.4,2.3,3,4.7,5.4v0c2.4,2.4,4.9,4.3,5.4,4.7
			c0.5,0.4,1.2,0.4,1.7,0l0,0c0.4-0.3,2.9-2.1,5.3-4.5h0c2.4-2.4,4.5-5.1,4.8-5.6C67.6,37.6,67.6,37,67.2,36.6L67.2,36.6z
			 M56.3,28.9l1.8,5.1h-1.2l0.2,4.8c-0.6,0.1-1,0.1-1.6,0l0.2-4.8h-1.2L56.3,28.9z M55.3,45.1l0.2-5c0.3,0.1,1.4,0.1,1.7,0l0.2,5
			C56.9,45.2,55.9,45.2,55.3,45.1 M56.1,39.8c-3.7,0-6.6-1.2-6.6-2.6c0-1,1.4-1.9,3.5-2.3l1.6,1c-1.6,0.3-2.7,0.9-2.7,1.6
			c0,1,2.2,1.8,5,1.8c2.4,0,5-0.8,5-1.8c0-0.6-0.7-1-1.4-1.3l-0.9,0.2L58.9,35l3,0.7l-0.7,0.2c0,0,1.2,0.6,1.4,1.3
			C63.1,38.7,60,39.8,56.1,39.8"/>
	</g>
	<g>
		<path class="st1" d="M61.8,49.7c-0.6,0-1.1,0.4-1.1,1.1c0,0.7,0.5,1.1,1.1,1.1c0.6,0,1.1-0.4,1.1-1.1
			C62.9,50.1,62.4,49.7,61.8,49.7 M61.8,51.7L61.8,51.7c-0.4,0-0.8-0.3-0.8-0.9c0-0.5,0.4-0.9,0.8-0.9c0.4,0,0.8,0.3,0.8,0.9
			C62.6,51.4,62.3,51.7,61.8,51.7 M62.3,50.6c0-0.3-0.2-0.4-0.5-0.4h-0.4v1.2h0.3v-0.5h0.1l0.3,0.5h0.3L62,50.9
			C62.2,50.9,62.3,50.8,62.3,50.6 M61.9,50.7h-0.2v-0.3h0.2c0.1,0,0.2,0,0.2,0.1C62.1,50.7,62,50.7,61.9,50.7"/>
	</g>
	<g>
		<rect x="76.8" y="25.6" class="st0" width="6.7" height="24.1"/>
	</g>
	<g>
		<polygon class="st0" points="87,49.7 87,25.6 105.3,25.6 105.3,30.3 93.7,30.3 93.7,35.2 104.4,35.2 104.4,39.9 93.7,39.9 
			93.7,45 105.3,45 105.3,49.7 		"/>
	</g>
	<g>
		<polygon class="st0" points="109.1,49.7 109.1,25.6 127.4,25.6 127.4,30.3 115.8,30.3 115.8,35.2 126.5,35.2 126.5,39.9 
			115.8,39.9 115.8,45 127.4,45 127.4,49.7 		"/>
	</g>
	<g>
		<polygon class="st0" points="131.2,49.7 131.2,25.6 149.5,25.6 149.5,30.3 137.9,30.3 137.9,35.2 148.6,35.2 148.6,39.9 
			137.9,39.9 137.9,45 149.5,45 149.5,49.7 		"/>
	</g>
</g>
</svg>
