<svg version="1.1" id="Capa_1" xmlns="http://www.w3.org/2000/svg" xmlns:xlink="http://www.w3.org/1999/xlink" x="0px" y="0px" viewBox="0 0 436.9 436.9" style="enable-background:new 0 0 436.9 436.9;" xml:space="preserve" width="100%" height='auto'>
<g>
	<circle fill="#E6B54A" cx="218.5" cy="218.5" r="218.5"/>
	<g>
		<g>
			<polygon fill="#77A7E3" points="223.1,156.6 213.8,91.6 148.7,114.8 158,175.2 			"/>
			<polygon fill="#77A7E3" points="353.3,152 344,91.6 278.9,114.8 288.2,175.2 			"/>
			<polygon fill="#77A7E3" points="223.1,156.6 218.5,221.7 278.9,240.3 288.2,175.2 			"/>
		</g>
		<g>
			<polygon fill="#4D80C9" points="288.2,175.2 278.9,114.8 213.8,91.6 223.1,156.6 			"/>
			<polygon fill="#4D80C9" points="278.9,240.3 344,217.1 353.3,152 288.2,175.2 			"/>
			<polygon fill="#4D80C9" points="223.1,277.5 288.2,300.7 278.9,240.3 218.5,221.7 			"/>
			<polygon fill="#4D80C9" points="223.1,156.6 158,175.2 148.7,240.3 218.5,221.7 			"/>
		</g>
		<g>
			<polygon fill="#77A7E3" points="148.7,240.3 158,300.7 223.1,277.5 218.5,221.7 			"/>
			<polygon fill="#77A7E3" points="278.9,240.3 288.2,300.7 353.3,277.5 344,217.1 			"/>
			<polygon fill="#77A7E3" points="223.1,277.5 213.8,337.9 278.9,361.2 288.2,300.7 			"/>
		</g>
		<g>
			<polygon fill="#4D80C9" points="158,300.7 148.7,361.2 213.8,337.9 223.1,277.5 			"/>
			<polygon fill="#4D80C9" points="278.9,361.2 344,337.9 353.3,277.5 288.2,300.7 			"/>
		</g>
		<polygon fill="#77A7E3" points="158,175.2 92.9,152 83.6,217.1 148.7,240.3 		"/>
		<polygon fill="#4D80C9" points="148.7,114.8 83.6,91.6 92.9,152 158,175.2 		"/>
		<polygon fill="#77A7E3" points="92.9,277.5 83.6,337.9 148.7,361.2 158,300.7 		"/>
		<polygon fill="#4D80C9" points="148.7,240.3 83.6,217.1 92.9,277.5 158,300.7 		"/>
		<path fill="#D01636" d="M255.6,175.2c0,0.7,0,1.3,0,1.9c-0.5,20-9.3,38.9-24.5,52.1l-12.7,11.1l-12.7-11.1
			c-15.1-13.2-23.9-32.1-24.5-52.1c0-0.7,0-1.3,0-1.9c0-20.5,16.6-37.2,37.2-37.2S255.6,154.7,255.6,175.2z"/>
		<circle fill="#FFFFFF" cx="218.5" cy="175.2" r="18.6"/>
	</g>
</g>
</svg>
