<?xml version="1.0" encoding="utf-8"?>
<!-- Generator: Adobe Illustrator 21.0.1, SVG Export Plug-In . SVG Version: 6.00 Build 0)  -->
<svg version="1.1" id="Capa_1" xmlns="http://www.w3.org/2000/svg" xmlns:xlink="http://www.w3.org/1999/xlink" x="0px" y="0px"
	 viewBox="0 0 436.9 436.9" style="enable-background:new 0 0 436.9 436.9;" xml:space="preserve">
<style type="text/css">
	.st0{fill:#407376;}
	.st1{fill:none;stroke:#FFFFFF;stroke-width:2;stroke-miterlimit:10;}
	.st2{opacity:0.8;fill:#417376;}
	.st3{fill:#FFFFFF;}
	.st4{fill-rule:evenodd;clip-rule:evenodd;fill:#FFFFFF;}
	.st5{fill:none;stroke:#407376;stroke-width:2;stroke-miterlimit:10;}
	.st6{fill:#E6B54A;}
	.st7{fill:#455669;}
	.st8{fill:#EBEFF1;}
	.st9{fill:#D3D4D9;}
	.st10{fill:#E1E4E7;}
	.st11{fill:#6A7887;}
	.st12{fill:#3A4959;}
	.st13{fill:#60A0D7;}
	.st14{fill:#77A7E3;}
	.st15{fill:#4D80C9;}
	.st16{fill:#D01636;}
	.st17{fill:#D05664;}
	.st18{fill:#ECE9DD;}
	.st19{fill:#D1CEB9;}
	.st20{fill:#3E4A5D;}
	.st21{fill:#7A6E5E;}
	.st22{fill:#92C7AF;}
	.st23{fill:none;stroke:#838384;stroke-miterlimit:10;}
	.st24{fill:#3B69A0;}
	.st25{fill-rule:evenodd;clip-rule:evenodd;fill:#3B69A0;}
</style>
<g>
	<circle class="st6" cx="218.5" cy="218.5" r="218.5"/>
	<g>
		<g>
			<polygon class="st14" points="223.1,156.6 213.8,91.6 148.7,114.8 158,175.2 			"/>
			<polygon class="st14" points="353.3,152 344,91.6 278.9,114.8 288.2,175.2 			"/>
			<polygon class="st14" points="223.1,156.6 218.5,221.7 278.9,240.3 288.2,175.2 			"/>
		</g>
		<g>
			<polygon class="st15" points="288.2,175.2 278.9,114.8 213.8,91.6 223.1,156.6 			"/>
			<polygon class="st15" points="278.9,240.3 344,217.1 353.3,152 288.2,175.2 			"/>
			<polygon class="st15" points="223.1,277.5 288.2,300.7 278.9,240.3 218.5,221.7 			"/>
			<polygon class="st15" points="223.1,156.6 158,175.2 148.7,240.3 218.5,221.7 			"/>
		</g>
		<g>
			<polygon class="st14" points="148.7,240.3 158,300.7 223.1,277.5 218.5,221.7 			"/>
			<polygon class="st14" points="278.9,240.3 288.2,300.7 353.3,277.5 344,217.1 			"/>
			<polygon class="st14" points="223.1,277.5 213.8,337.9 278.9,361.2 288.2,300.7 			"/>
		</g>
		<g>
			<polygon class="st15" points="158,300.7 148.7,361.2 213.8,337.9 223.1,277.5 			"/>
			<polygon class="st15" points="278.9,361.2 344,337.9 353.3,277.5 288.2,300.7 			"/>
		</g>
		<polygon class="st14" points="158,175.2 92.9,152 83.6,217.1 148.7,240.3 		"/>
		<polygon class="st15" points="148.7,114.8 83.6,91.6 92.9,152 158,175.2 		"/>
		<polygon class="st14" points="92.9,277.5 83.6,337.9 148.7,361.2 158,300.7 		"/>
		<polygon class="st15" points="148.7,240.3 83.6,217.1 92.9,277.5 158,300.7 		"/>
		<path class="st16" d="M255.6,175.2c0,0.7,0,1.3,0,1.9c-0.5,20-9.3,38.9-24.5,52.1l-12.7,11.1l-12.7-11.1
			c-15.1-13.2-23.9-32.1-24.5-52.1c0-0.7,0-1.3,0-1.9c0-20.5,16.6-37.2,37.2-37.2S255.6,154.7,255.6,175.2z"/>
		<circle class="st3" cx="218.5" cy="175.2" r="18.6"/>
	</g>
</g>
</svg>
